<svg width="24" height="24" viewBox="0 0 24 24" fill="none" xmlns="http://www.w3.org/2000/svg">
<path d="M22.2858 10.2207H5.85359L9.78423 6.0941C9.94795 5.92809 10.0785 5.72951 10.1684 5.50994C10.2582 5.29038 10.3055 5.05423 10.3075 4.81528C10.3095 4.57632 10.2661 4.33935 10.1799 4.11818C10.0937 3.89701 9.96642 3.69608 9.80548 3.5271C9.64453 3.35813 9.45313 3.2245 9.24247 3.13401C9.0318 3.04353 8.80608 2.99799 8.57847 3.00007C8.35086 3.00214 8.12592 3.05179 7.91678 3.14611C7.70765 3.24042 7.51849 3.37753 7.36037 3.54941L0.503608 10.748C0.343972 10.9151 0.217317 11.1137 0.1309 11.3324C0.0444827 11.551 0 11.7854 0 12.0221C0 12.2588 0.0444827 12.4932 0.1309 12.7119C0.217317 12.9305 0.343972 13.1291 0.503608 13.2963L7.36037 20.4948C7.68367 20.8226 8.11667 21.004 8.56613 20.9999C9.01558 20.9958 9.44552 20.8066 9.76335 20.4729C10.0812 20.1392 10.2615 19.6879 10.2654 19.216C10.2693 18.7441 10.0965 18.2895 9.78423 17.9501L5.85359 13.82H22.2858C22.7404 13.82 23.1765 13.6304 23.4979 13.2929C23.8194 12.9554 24 12.4976 24 12.0203C24 11.543 23.8194 11.0853 23.4979 10.7478C23.1765 10.4103 22.7404 10.2207 22.2858 10.2207Z" fill="#6B7280"/>
</svg>
