<svg xmlns="http://www.w3.org/2000/svg" width="13" height="13" viewBox="0 0 13 13" fill="none">
  <path d="M6.5 9.07143C6.02532 9.07143 5.56131 8.92062 5.16663 8.63806C4.77195 8.35551 4.46434 7.95391 4.28269 7.48404C4.10104 7.01418 4.05351 6.49715 4.14612 5.99834C4.23872 5.49953 4.4673 5.04135 4.80294 4.68173C5.13859 4.3221 5.56623 4.0772 6.03178 3.97798C6.49734 3.87876 6.9799 3.92968 7.41844 4.12431C7.85698 4.31893 8.23181 4.64852 8.49553 5.07139C8.75924 5.49426 8.9 5.99142 8.9 6.5C8.9 7.18198 8.64714 7.83604 8.19706 8.31827C7.74697 8.80051 7.13652 9.07143 6.5 9.07143ZM6.5 5.21429C6.26266 5.21429 6.03065 5.28969 5.83332 5.43097C5.63598 5.57224 5.48217 5.77305 5.39134 6.00798C5.30052 6.24291 5.27676 6.50143 5.32306 6.75083C5.36936 7.00023 5.48365 7.22933 5.65147 7.40914C5.8193 7.58895 6.03311 7.7114 6.26589 7.76101C6.49867 7.81062 6.73995 7.78516 6.95922 7.68785C7.17849 7.59053 7.36591 7.42574 7.49776 7.2143C7.62962 7.00287 7.7 6.75429 7.7 6.5C7.7 6.15901 7.57357 5.83198 7.34853 5.59086C7.12348 5.34974 6.81826 5.21429 6.5 5.21429Z" fill="#111928"/>
  <path d="M6.5 11C2.6276 11 0.5 7.61986 0.5 6.5C0.5 5.43029 3.2672 2 6.5 2C9.7328 2 12.5 5.43029 12.5 6.5C12.5 7.61986 10.3724 11 6.5 11ZM1.7078 6.518C2.13468 7.48846 2.81394 8.30628 3.66401 8.87326C4.51408 9.44023 5.49882 9.73226 6.5 9.71429C7.50118 9.73226 8.48592 9.44023 9.33599 8.87326C10.1861 8.30628 10.8653 7.48846 11.2922 6.518C11.0744 5.89443 9.053 3.28571 6.5 3.28571C3.947 3.28571 1.9256 5.89443 1.7078 6.518Z" fill="#111928"/>
</svg>