<svg xmlns="http://www.w3.org/2000/svg" width="12" height="13" viewBox="0 0 12 13" fill="none">
  <path d="M1.2 8.69431L2.0538 7.82468C1.68442 7.45595 1.39625 7.01152 1.2084 6.52085C1.4256 5.92847 3.447 3.45028 6 3.45028C6.111 3.45028 6.2166 3.4686 6.3246 3.47776L7.3656 2.4182C6.92025 2.29581 6.46129 2.23218 6 2.22889C2.7672 2.22889 0 5.48755 0 6.50375C0.156483 7.3469 0.577575 8.11559 1.2 8.69431Z" fill="#111928"/>
  <path fill-rule="evenodd" clip-rule="evenodd" d="M0.866707 11.897C0.965353 11.9641 1.08133 12 1.19998 12C1.3591 12 1.51169 11.9356 1.62418 11.8211L4.78101 8.60798C5.14962 8.8292 5.57045 8.94653 6 8.94653C6.63652 8.94653 7.24697 8.68916 7.69706 8.23105C8.14715 7.77294 8.4 7.15162 8.4 6.50375C8.4 6.06654 8.28473 5.63821 8.06738 5.26303L11.2242 2.04996C11.2815 1.99362 11.3272 1.92624 11.3586 1.85173C11.3901 1.77722 11.4066 1.69709 11.4073 1.616C11.408 1.53491 11.3928 1.4545 11.3627 1.37945C11.3325 1.30439 11.288 1.23621 11.2316 1.17887C11.1753 1.12153 11.1083 1.07618 11.0346 1.04548C10.9608 1.01477 10.8818 0.999318 10.8021 1.00002C10.7225 1.00073 10.6437 1.01757 10.5705 1.04958C10.4973 1.08159 10.4311 1.12811 10.3758 1.18644L7.21898 4.39951C7.1228 4.34179 7.02241 4.29075 6.91844 4.24692C6.4799 4.06203 5.99734 4.01366 5.53178 4.10791C5.06623 4.20217 4.63859 4.43482 4.30295 4.77645C3.9673 5.11807 3.73872 5.55334 3.64612 6.02719C3.55351 6.50104 3.60104 6.9922 3.78269 7.43856C3.82576 7.54438 3.8759 7.64656 3.93261 7.74445L0.775782 10.9575C0.691896 11.043 0.634772 11.1518 0.611632 11.2702C0.588491 11.3886 0.600373 11.5114 0.645775 11.623C0.691177 11.7346 0.768061 11.8299 0.866707 11.897ZM5.6893 7.68349C5.71458 7.69039 5.74012 7.69645 5.76589 7.70167C5.99867 7.7488 6.23995 7.72461 6.45922 7.63217C6.67849 7.53972 6.86591 7.38317 6.99777 7.18232C7.12962 6.98146 7.2 6.74532 7.2 6.50375C7.2 6.39603 7.18602 6.28978 7.15908 6.18751L5.6893 7.68349ZM6.31067 5.324L4.84091 6.81996C4.83414 6.79424 4.82818 6.76826 4.82306 6.74203C4.77676 6.50511 4.80052 6.25952 4.89135 6.03635C4.98217 5.81317 5.13598 5.62241 5.33332 5.4882C5.53066 5.35399 5.76266 5.28236 6 5.28236C6.10582 5.28236 6.2102 5.29659 6.31067 5.324Z" fill="#111928"/>
  <path d="M10.6926 4.42311L9.84 5.28847C10.2227 5.64252 10.5436 6.06004 10.7892 6.52329C10.3619 7.44408 9.68294 8.21998 8.83354 8.75807C7.98415 9.29616 7.00035 9.57362 6 9.55722C5.8842 9.55722 5.7732 9.54989 5.6622 9.54379L4.599 10.6253C5.05943 10.7263 5.52901 10.7777 6 10.7786C9.8718 10.7786 12 7.56758 12 6.50375C12 5.79168 11.0178 4.74861 10.6926 4.42311Z" fill="#111928"/>
</svg>