<svg width="20" height="20" viewBox="0 0 20 20" fill="none" xmlns="http://www.w3.org/2000/svg">
<g clip-path="url(#clip0_212_1471)">
<path d="M19.1668 10.4002C19.1668 9.76457 19.1153 9.12546 19.0053 8.50009H10.1848V12.1011H15.2359C15.0263 13.2625 14.3528 14.2899 13.3667 14.9428V17.2793H16.3801C18.1497 15.6506 19.1668 13.2453 19.1668 10.4002Z" fill="#4285F4"/>
<path d="M10.1848 19.5368C12.7069 19.5368 14.8339 18.7087 16.3836 17.2793L13.3701 14.9428C12.5317 15.5132 11.4493 15.8362 10.1883 15.8362C7.74864 15.8362 5.68011 14.1903 4.93791 11.9774H1.82824V14.3861C3.41572 17.5439 6.64909 19.5368 10.1848 19.5368Z" fill="#34A853"/>
<path d="M4.93449 11.9774C4.54277 10.816 4.54277 9.55839 4.93449 8.39699V5.98829H1.82825C0.501917 8.63065 0.501908 11.7438 1.82824 14.3861L4.93449 11.9774Z" fill="#FBBC04"/>
<path d="M10.1848 4.53481C11.518 4.51419 12.8066 5.01586 13.7721 5.93673L16.442 3.26688C14.7514 1.67941 12.5076 0.806637 10.1848 0.834126C6.64909 0.834126 3.41573 2.82708 1.82825 5.98829L4.93449 8.39699C5.67325 6.18071 7.74521 4.53481 10.1848 4.53481Z" fill="#EA4335"/>
</g>
<defs>
<clipPath id="clip0_212_1471">
<rect width="20" height="20" fill="white"/>
</clipPath>
</defs>
</svg>
