<svg width="21" height="21" viewBox="0 0 21 21" fill="none" xmlns="http://www.w3.org/2000/svg">
<path d="M1.3335 13.3205C1.3335 15.6571 3.22768 17.5513 5.56427 17.5513H16.1412C18.0883 17.5513 19.6668 15.9728 19.6668 14.0257C19.6668 12.5194 18.7223 11.2338 17.3932 10.7288C17.4957 10.4365 17.5514 10.1222 17.5514 9.79488C17.5514 8.23716 16.2887 6.97437 14.7309 6.97437C14.427 6.97437 14.1343 7.02244 13.86 7.1114C13.2986 5.00246 11.3757 3.44873 9.08991 3.44873C6.36388 3.44873 4.15401 5.65861 4.15401 8.38463C4.15401 8.69792 4.1832 9.00439 4.239 9.30147C2.55154 9.85759 1.3335 11.4468 1.3335 13.3205Z" fill="#3F83F8"/>
</svg>
